<?xml version="1.0" encoding="UTF-8"?>
<svg xmlns="http://www.w3.org/2000/svg" width="21" height="26" viewBox="0 0 21 26" fill="none">
   <path fill-rule="evenodd" clip-rule="evenodd" d="M0.98999 22.1581C0.98999 24.1991 1.99999 25.2251 4.01999 25.2251H13.2C15.22 25.2251 16.22 24.1891 16.22 22.1581V20.3521H17.93C19.95 20.3521 20.96 19.3161 20.96 17.2851V9.35505C20.96 8.15405 20.72 7.39305 19.98 6.64105L15.05 1.63105C14.36 0.918053 13.54 0.654053 12.49 0.654053H8.74999C6.73999 0.654053 5.72999 1.68905 5.72999 3.72105V5.52705H4.01999C2.00999 5.52705 0.98999 6.55305 0.98999 8.59405V22.1581ZM15.3 11.9341L9.91999 6.45505C9.16999 5.69305 8.55999 5.52705 7.45999 5.52705H7.29999V3.75005C7.29999 2.78305 7.81999 2.22705 8.82999 2.22705H13.15V7.23605C13.15 8.36905 13.7 8.90605 14.82 8.90605H19.39V17.2561C19.39 18.2321 18.86 18.7791 17.85 18.7791H16.22V14.5311C16.22 13.2811 16.08 12.7341 15.3 11.9341ZM14.56 2.99805V7.00205C14.56 7.34405 14.7 7.49005 15.04 7.49005H18.98L14.56 2.99805ZM2.55999 22.1291V8.61305C2.55999 7.65605 3.07999 7.10005 4.09999 7.10005H7.29999V12.7641C7.29999 13.9941 7.91999 14.6091 9.12999 14.6091H14.65V22.1291C14.65 23.1051 14.12 23.6521 13.12 23.6521H4.08999C3.07999 23.6521 2.55999 23.1051 2.55999 22.1291ZM8.76999 12.5881C8.76999 12.9791 8.92999 13.1351 9.31999 13.1351H14.35L8.76999 7.46105V12.5881Z" fill="#202020" />
</svg>